<?xml version="1.0" encoding="utf-8"?>
<!-- Generator: Adobe Illustrator 21.1.0, SVG Export Plug-In . SVG Version: 6.00 Build 0)  -->
<svg version="1.1" xmlns="http://www.w3.org/2000/svg" xmlns:xlink="http://www.w3.org/1999/xlink" x="0px" y="0px"
	 viewBox="0 0 128 128" style="enable-background:new 0 0 128 128;" xml:space="preserve">
<style type="text/css">
	.st0{fill:#25273E;}
	.st1{fill:#F1D302;}
	.st2{fill:#EF476F;}
	.st3{fill:#ADE25D;}
</style>
<g id="Layer_2">
	<path class="st0" d="M121.8,128H6.2c-3.4,0-6.2-2.8-6.2-6.2V6.2C0,2.8,2.8,0,6.2,0h115.7c3.4,0,6.2,2.8,6.2,6.2v115.7
		C128,125.2,125.2,128,121.8,128z"/>
</g>
<g id="Layer_1">
	<g>
		<path class="st1" d="M82.4,58.3h-2.5c-0.5,0-0.9-0.4-0.9-0.9V54v-3.4c0-0.5-0.4-0.9-0.9-0.9h-3.4h-3.4c-0.5,0-0.9,0.4-0.9,0.9v2.5
			c0,0.5-0.4,0.9-0.9,0.9H67c-0.5,0-0.9-0.4-0.9-0.9v-2.5c0-0.5-0.4-0.9-0.9-0.9h-2.5c-0.5,0-0.9,0.4-0.9,0.9v2.5
			c0,0.5-0.4,0.9-0.9,0.9h-2.5c-0.5,0-0.9-0.4-0.9-0.9v-2.5c0-0.5-0.4-0.9-0.9-0.9h-3.4h-3.4c-0.5,0-0.9,0.4-0.9,0.9V54v3.4
			c0,0.5-0.4,0.9-0.9,0.9h-2.5c-0.5,0-0.9,0.4-0.9,0.9v2.5c0,0.5,0.4,0.9,0.9,0.9h2.5c0.5,0,0.9,0.4,0.9,0.9v3.4v4.3v4.3v4.3v3.4
			c0,0.5,0.4,0.9,0.9,0.9h2.5c0.5,0,0.9,0.4,0.9,0.9v3.4v4.3V96c0,0.5,0.4,0.9,0.9,0.9h3.4h4.3h4.3h4.3h3.4c0.5,0,0.9-0.4,0.9-0.9
			v-3.4v-4.3v-3.4c0-0.5,0.4-0.9,0.9-0.9h2.5c0.5,0,0.9-0.4,0.9-0.9v-3.4v-4.3v-4.3v-4.3v-3.4c0-0.5,0.4-0.9,0.9-0.9h2.5
			c0.5,0,0.9-0.4,0.9-0.9v-2.5C83.3,58.7,82.9,58.3,82.4,58.3z M53.3,75.4V72c0-0.5,0.4-0.9,0.9-0.9h2.5c0.5,0,0.9,0.4,0.9,0.9v2.5
			c0,0.5,0.4,0.9,0.9,0.9H61c0.5,0,0.9,0.4,0.9,0.9v2.5c0,0.5-0.4,0.9-0.9,0.9h-3.4h-3.4c-0.5,0-0.9-0.4-0.9-0.9V75.4z M61.9,91.7
			v-2.5c0-0.5,0.4-0.9,0.9-0.9h2.5c0.5,0,0.9,0.4,0.9,0.9v2.5c0,0.5-0.4,0.9-0.9,0.9h-2.5C62.3,92.6,61.9,92.2,61.9,91.7z
			 M74.7,75.4v3.4c0,0.5-0.4,0.9-0.9,0.9h-3.4H67c-0.5,0-0.9-0.4-0.9-0.9v-2.5c0-0.5,0.4-0.9,0.9-0.9h2.5c0.5,0,0.9-0.4,0.9-0.9V72
			c0-0.5,0.4-0.9,0.9-0.9h2.5c0.5,0,0.9,0.4,0.9,0.9V75.4z"/>
		<path class="st2" d="M61.9,41.1v3.4c0,0.5,0.4,0.9,0.9,0.9h2.5c0.5,0,0.9-0.4,0.9-0.9v-3.4v-3.4c0-0.5,0.4-0.9,0.9-0.9h2.5
			c0.5,0,0.9-0.4,0.9-0.9v-3.4v-4.3V24v-3.4c0-0.5-0.4-0.9-0.9-0.9H67c-0.5,0-0.9-0.4-0.9-0.9v-3.4V12c0-0.5-0.4-0.9-0.9-0.9h-2.5
			c-0.5,0-0.9,0.4-0.9,0.9v3.4v3.4c0,0.5-0.4,0.9-0.9,0.9h-2.5c-0.5,0-0.9,0.4-0.9,0.9V24v4.3v4.3V36c0,0.5,0.4,0.9,0.9,0.9H61
			c0.5,0,0.9,0.4,0.9,0.9V41.1z"/>
		<path class="st2" d="M99.6,19.7H97c-0.5,0-0.9,0.4-0.9,0.9v2.5c0,0.5,0.4,0.9,0.9,0.9h2.5c0.5,0,0.9-0.4,0.9-0.9v-2.5
			C100.4,20.1,100,19.7,99.6,19.7z"/>
		<path class="st2" d="M83.3,44.6V42c0-0.5,0.4-0.9,0.9-0.9h2.5c0.5,0,0.9-0.4,0.9-0.9v-2.5c0-0.5,0.4-0.9,0.9-0.9H91
			c0.5,0,0.9-0.4,0.9-0.9v-2.5c0-0.5,0.4-0.9,0.9-0.9h2.5c0.5,0,0.9-0.4,0.9-0.9v-3.4v-3.4c0-0.5-0.4-0.9-0.9-0.9h-3.4h-3.4
			c-0.5,0-0.9,0.4-0.9,0.9v2.5c0,0.5-0.4,0.9-0.9,0.9h-2.5c-0.5,0-0.9,0.4-0.9,0.9v2.5c0,0.5-0.4,0.9-0.9,0.9h-2.5
			c-0.5,0-0.9,0.4-0.9,0.9v3.4v3.4c0,0.5-0.4,0.9-0.9,0.9h-2.5c-0.5,0-0.9,0.4-0.9,0.9v2.5c0,0.5,0.4,0.9,0.9,0.9H79h3.4
			C82.9,45.4,83.3,45,83.3,44.6z"/>
		<path class="st2" d="M32.7,32.6h2.5c0.5,0,0.9,0.4,0.9,0.9V36c0,0.5,0.4,0.9,0.9,0.9h2.5c0.5,0,0.9,0.4,0.9,0.9v2.5
			c0,0.5,0.4,0.9,0.9,0.9h2.5c0.5,0,0.9,0.4,0.9,0.9v2.5c0,0.5,0.4,0.9,0.9,0.9H49h3.4c0.5,0,0.9-0.4,0.9-0.9V42
			c0-0.5-0.4-0.9-0.9-0.9h-2.5c-0.5,0-0.9-0.4-0.9-0.9v-3.4v-3.4c0-0.5-0.4-0.9-0.9-0.9h-2.5c-0.5,0-0.9-0.4-0.9-0.9v-2.5
			c0-0.5-0.4-0.9-0.9-0.9h-2.5c-0.5,0-0.9-0.4-0.9-0.9v-2.5c0-0.5-0.4-0.9-0.9-0.9h-3.4h-3.4c-0.5,0-0.9,0.4-0.9,0.9v3.4v3.4
			C31.9,32.2,32.2,32.6,32.7,32.6z"/>
		<path class="st2" d="M31,19.7h-2.5c-0.5,0-0.9,0.4-0.9,0.9v2.5c0,0.5,0.4,0.9,0.9,0.9H31c0.5,0,0.9-0.4,0.9-0.9v-2.5
			C31.9,20.1,31.5,19.7,31,19.7z"/>
		<path class="st2" d="M104.7,48.8v-2.5c0-0.5-0.4-0.9-0.9-0.9h-3.4h-4.3h-3.4c-0.5,0-0.9,0.4-0.9,0.9v2.5c0,0.5-0.4,0.9-0.9,0.9
			h-3.4h-3.4c-0.5,0-0.9,0.4-0.9,0.9v2.5c0,0.5,0.4,0.9,0.9,0.9h3.4H91c0.5,0,0.9,0.4,0.9,0.9v2.5c0,0.5,0.4,0.9,0.9,0.9h3.4h4.3
			h3.4c0.5,0,0.9-0.4,0.9-0.9v-2.5c0-0.5,0.4-0.9,0.9-0.9h2.5c0.5,0,0.9-0.4,0.9-0.9v-2.5c0-0.5-0.4-0.9-0.9-0.9h-2.5
			C105.1,49.7,104.7,49.3,104.7,48.8z"/>
		<path class="st2" d="M36.1,67.7v2.5c0,0.5,0.4,0.9,0.9,0.9h3.4h3.4c0.5,0,0.9-0.4,0.9-0.9v-2.5c0-0.5-0.4-0.9-0.9-0.9h-3.4H37
			C36.5,66.9,36.1,67.2,36.1,67.7z"/>
		<path class="st2" d="M83.3,67.7v2.5c0,0.5,0.4,0.9,0.9,0.9h3.4H91c0.5,0,0.9-0.4,0.9-0.9v-2.5c0-0.5-0.4-0.9-0.9-0.9h-3.4h-3.4
			C83.7,66.9,83.3,67.2,83.3,67.7z"/>
		<path class="st2" d="M41.3,84h2.5c0.5,0,0.9-0.4,0.9-0.9v-2.5c0-0.5-0.4-0.9-0.9-0.9h-2.5c-0.5,0-0.9,0.4-0.9,0.9v2.5
			C40.4,83.6,40.8,84,41.3,84z"/>
		<path class="st2" d="M84.2,84h2.5c0.5,0,0.9-0.4,0.9-0.9v-2.5c0-0.5-0.4-0.9-0.9-0.9h-2.5c-0.5,0-0.9,0.4-0.9,0.9v2.5
			C83.3,83.6,83.7,84,84.2,84z"/>
		<path class="st2" d="M36.1,54.9c0-0.5,0.4-0.9,0.9-0.9h3.4h3.4c0.5,0,0.9-0.4,0.9-0.9v-2.5c0-0.5-0.4-0.9-0.9-0.9h-3.4H37
			c-0.5,0-0.9-0.4-0.9-0.9v-2.5c0-0.5-0.4-0.9-0.9-0.9h-3.4h-4.3h-3.4c-0.5,0-0.9,0.4-0.9,0.9v2.5c0,0.5-0.4,0.9-0.9,0.9h-2.5
			c-0.5,0-0.9,0.4-0.9,0.9v2.5c0,0.5,0.4,0.9,0.9,0.9h2.5c0.5,0,0.9,0.4,0.9,0.9v2.5c0,0.5,0.4,0.9,0.9,0.9h3.4h4.3h3.4
			c0.5,0,0.9-0.4,0.9-0.9V54.9z"/>
	</g>
	<g>
		<path class="st3" d="M41.6,113.2v-1.6v-1.2c0-0.2-0.2-0.4-0.4-0.4h-0.8c-0.2,0-0.4,0.2-0.4,0.4v1.2v1.6v1.6v1.2
			c0,0.2,0.2,0.4,0.4,0.4h0.8c0.2,0,0.4-0.2,0.4-0.4v-1.2V113.2z"/>
		<path class="st3" d="M44.8,111.6v1.6v1.6v1.2c0,0.2,0.2,0.4,0.4,0.4H46c0.2,0,0.4-0.2,0.4-0.4v-1.2v-1.6v-1.6v-1.2
			c0-0.2-0.2-0.4-0.4-0.4h-0.8c-0.2,0-0.4,0.2-0.4,0.4V111.6z"/>
		<path class="st3" d="M49.6,113.2V112c0-0.2-0.2-0.4-0.4-0.4h-0.8c-0.2,0-0.4,0.2-0.4,0.4v1.2v1.6v1.2c0,0.2,0.2,0.4,0.4,0.4h0.8
			c0.2,0,0.4-0.2,0.4-0.4v-1.2V113.2z"/>
		<path class="st3" d="M49.6,116.8v0.8c0,0.2,0.2,0.4,0.4,0.4h1.2h1.2c0.2,0,0.4-0.2,0.4-0.4v-0.8c0-0.2-0.2-0.4-0.4-0.4h-1.2H50
			C49.8,116.4,49.6,116.6,49.6,116.8z"/>
		<path class="st3" d="M41.6,116.8v0.8c0,0.2,0.2,0.4,0.4,0.4h1.2h1.2c0.2,0,0.4-0.2,0.4-0.4v-0.8c0-0.2-0.2-0.4-0.4-0.4h-1.2H42
			C41.8,116.4,41.6,116.6,41.6,116.8z"/>
		<path class="st3" d="M52.8,113.2v1.6v1.2c0,0.2,0.2,0.4,0.4,0.4H54c0.2,0,0.4-0.2,0.4-0.4v-1.2v-1.6V112c0-0.2-0.2-0.4-0.4-0.4
			h-0.8c-0.2,0-0.4,0.2-0.4,0.4V113.2z"/>
		<path class="st3" d="M52.8,111.2v-0.8c0-0.2-0.2-0.4-0.4-0.4h-1.2H50c-0.2,0-0.4,0.2-0.4,0.4v0.8c0,0.2,0.2,0.4,0.4,0.4h1.2h1.2
			C52.6,111.6,52.8,111.4,52.8,111.2z"/>
		<path class="st3" d="M57.6,113.2V112c0-0.2-0.2-0.4-0.4-0.4h-0.8c-0.2,0-0.4,0.2-0.4,0.4v1.2v1.6v1.2c0,0.2,0.2,0.4,0.4,0.4h0.8
			c0.2,0,0.4-0.2,0.4-0.4v-1.2V113.2z"/>
		<path class="st3" d="M57.6,116.8v0.8c0,0.2,0.2,0.4,0.4,0.4h1.2h1.2c0.2,0,0.4-0.2,0.4-0.4v-0.8c0-0.2-0.2-0.4-0.4-0.4h-1.2H58
			C57.8,116.4,57.6,116.6,57.6,116.8z"/>
		<path class="st3" d="M60.8,113.2v1.6v1.2c0,0.2,0.2,0.4,0.4,0.4H62c0.2,0,0.4-0.2,0.4-0.4v-1.2v-1.6V112c0-0.2-0.2-0.4-0.4-0.4
			h-0.8c-0.2,0-0.4,0.2-0.4,0.4V113.2z"/>
		<path class="st3" d="M60.8,111.2v-0.8c0-0.2-0.2-0.4-0.4-0.4h-1.2H58c-0.2,0-0.4,0.2-0.4,0.4v0.8c0,0.2,0.2,0.4,0.4,0.4h1.2h1.2
			C60.6,111.6,60.8,111.4,60.8,111.2z"/>
		<path class="st3" d="M66,116.4c-0.2,0-0.4-0.2-0.4-0.4v-1.2v-1.6V112c0-0.2,0.2-0.4,0.4-0.4h1.2h1.2c0.2,0,0.4-0.2,0.4-0.4v-0.8
			c0-0.2-0.2-0.4-0.4-0.4h-1.2h-1.6h-1.2c-0.2,0-0.4,0.2-0.4,0.4v1.2v1.6v1.6v1.6v1.2c0,0.2,0.2,0.4,0.4,0.4h1.2h1.6h1.2
			c0.2,0,0.4-0.2,0.4-0.4v-0.8c0-0.2-0.2-0.4-0.4-0.4h-1.2H66z"/>
		<path class="st3" d="M68.8,113.2v1.6v1.2c0,0.2,0.2,0.4,0.4,0.4H70c0.2,0,0.4-0.2,0.4-0.4v-1.2v-1.6V112c0-0.2-0.2-0.4-0.4-0.4
			h-0.8c-0.2,0-0.4,0.2-0.4,0.4V113.2z"/>
		<path class="st3" d="M73.6,113.2V112c0-0.2-0.2-0.4-0.4-0.4h-0.8c-0.2,0-0.4,0.2-0.4,0.4v1.2v1.6v1.2c0,0.2,0.2,0.4,0.4,0.4h0.8
			c0.2,0,0.4-0.2,0.4-0.4v-1.2V113.2z"/>
		<path class="st3" d="M73.6,116.8v0.8c0,0.2,0.2,0.4,0.4,0.4h1.2h1.2c0.2,0,0.4-0.2,0.4-0.4v-0.8c0-0.2-0.2-0.4-0.4-0.4h-1.2H74
			C73.8,116.4,73.6,116.6,73.6,116.8z"/>
		<path class="st3" d="M76.8,113.2v1.6v1.2c0,0.2,0.2,0.4,0.4,0.4H78c0.2,0,0.4-0.2,0.4-0.4v-1.2v-1.6V112c0-0.2-0.2-0.4-0.4-0.4
			h-0.8c-0.2,0-0.4,0.2-0.4,0.4V113.2z"/>
		<path class="st3" d="M76.8,111.2v-0.8c0-0.2-0.2-0.4-0.4-0.4h-1.2H74c-0.2,0-0.4,0.2-0.4,0.4v0.8c0,0.2,0.2,0.4,0.4,0.4h1.2h1.2
			C76.6,111.6,76.8,111.4,76.8,111.2z"/>
		<path class="st3" d="M81.6,113.2V112c0-0.2-0.2-0.4-0.4-0.4h-0.8c-0.2,0-0.4,0.2-0.4,0.4v1.2v1.6v1.2c0,0.2,0.2,0.4,0.4,0.4h0.8
			c0.2,0,0.4-0.2,0.4-0.4v-1.2V113.2z"/>
		<path class="st3" d="M81.6,116.8v0.8c0,0.2,0.2,0.4,0.4,0.4h1.2h1.2c0.2,0,0.4-0.2,0.4-0.4v-0.8c0-0.2-0.2-0.4-0.4-0.4h-1.2H82
			C81.8,116.4,81.6,116.6,81.6,116.8z"/>
		<path class="st3" d="M85.2,111.6c-0.2,0-0.4,0.2-0.4,0.4v1.2v1.6v1.2c0,0.2,0.2,0.4,0.4,0.4H86c0.2,0,0.4-0.2,0.4-0.4v-1.2v-1.6
			V112c0-0.2-0.2-0.4-0.4-0.4H85.2z"/>
		<path class="st3" d="M84.8,111.2v-0.8c0-0.2-0.2-0.4-0.4-0.4h-1.2H82c-0.2,0-0.4,0.2-0.4,0.4v0.8c0,0.2,0.2,0.4,0.4,0.4h1.2h1.2
			C84.6,111.6,84.8,111.4,84.8,111.2z"/>
	</g>
</g>
</svg>
