<?xml version="1.0" encoding="utf-8"?>
<!-- Generator: Adobe Illustrator 21.1.0, SVG Export Plug-In . SVG Version: 6.00 Build 0)  -->
<svg version="1.1" xmlns="http://www.w3.org/2000/svg" xmlns:xlink="http://www.w3.org/1999/xlink" x="0px" y="0px"
	 viewBox="0 0 128 128" style="enable-background:new 0 0 128 128;" xml:space="preserve">
<style type="text/css">
	.st0{fill:#25273E;}
	.st1{fill:#A2FF6D;}
	.st2{fill:#EF476F;}
</style>
<g id="Layer_2">
	<path class="st0" d="M121.8,128H6.2c-3.4,0-6.2-2.8-6.2-6.2V6.2C0,2.8,2.8,0,6.2,0h115.7c3.4,0,6.2,2.8,6.2,6.2v115.7
		C128,125.2,125.2,128,121.8,128z"/>
</g>
<g id="Layer_1">
	<g>
		<path class="st1" d="M84,68.7h-2.7c-0.5,0-1-0.4-1-1V64v-3.7c0-0.5-0.4-1-1-1h-3.7H72c-0.5,0-1,0.4-1,1V63c0,0.5-0.4,1-1,1h-2.7
			c-0.5,0-1-0.4-1-1v-2.7c0-0.5-0.4-1-1-1h-2.7c-0.5,0-1,0.4-1,1V63c0,0.5-0.4,1-1,1H58c-0.5,0-1-0.4-1-1v-2.7c0-0.5-0.4-1-1-1h-3.7
			h-3.7c-0.5,0-1,0.4-1,1V64v3.7c0,0.5-0.4,1-1,1H44c-0.5,0-1,0.4-1,1v2.7c0,0.5,0.4,1,1,1h2.7c0.5,0,1,0.4,1,1V78v4.7v4.7V92v3.7
			c0,0.5,0.4,1,1,1h2.7c0.5,0,1,0.4,1,1v3.7v4.7v3.7c0,0.5,0.4,1,1,1H57h4.7h4.7H71h3.7c0.5,0,1-0.4,1-1V106v-4.7v-3.7
			c0-0.5,0.4-1,1-1h2.7c0.5,0,1-0.4,1-1V92v-4.7v-4.7V78v-3.7c0-0.5,0.4-1,1-1H84c0.5,0,1-0.4,1-1v-2.7C85,69.1,84.6,68.7,84,68.7z
			 M52.3,87.3v-3.7c0-0.5,0.4-1,1-1H56c0.5,0,1,0.4,1,1v2.7c0,0.5,0.4,1,1,1h2.7c0.5,0,1,0.4,1,1V91c0,0.5-0.4,1-1,1H57h-3.7
			c-0.5,0-1-0.4-1-1V87.3z M61.7,105v-2.7c0-0.5,0.4-1,1-1h2.7c0.5,0,1,0.4,1,1v2.7c0,0.5-0.4,1-1,1h-2.7
			C62.1,106,61.7,105.6,61.7,105z M75.7,87.3V91c0,0.5-0.4,1-1,1H71h-3.7c-0.5,0-1-0.4-1-1v-2.7c0-0.5,0.4-1,1-1H70c0.5,0,1-0.4,1-1
			v-2.7c0-0.5,0.4-1,1-1h2.7c0.5,0,1,0.4,1,1V87.3z"/>
		<path class="st2" d="M61.7,50v3.7c0,0.5,0.4,0.9,0.9,0.9h2.8c0.5,0,0.9-0.4,0.9-0.9V50v-3.7c0-0.5,0.4-0.9,0.9-0.9h2.8
			c0.5,0,0.9-0.4,0.9-0.9v-3.7V36v-4.7v-3.7c0-0.5-0.4-0.9-0.9-0.9h-2.8c-0.5,0-0.9-0.4-0.9-0.9V22v-3.7c0-0.5-0.4-0.9-0.9-0.9h-2.8
			c-0.5,0-0.9,0.4-0.9,0.9V22v3.7c0,0.5-0.4,0.9-0.9,0.9h-2.8c-0.5,0-0.9,0.4-0.9,0.9v3.7V36v4.7v3.7c0,0.5,0.4,0.9,0.9,0.9h2.8
			c0.5,0,0.9,0.4,0.9,0.9V50z"/>
		<path class="st2" d="M102.7,26.7h-2.8c-0.5,0-0.9,0.4-0.9,0.9v2.8c0,0.5,0.4,0.9,0.9,0.9h2.8c0.5,0,0.9-0.4,0.9-0.9v-2.8
			C103.7,27.1,103.2,26.7,102.7,26.7z"/>
		<path class="st2" d="M85,53.7v-2.8c0-0.5,0.4-0.9,0.9-0.9h2.8c0.5,0,0.9-0.4,0.9-0.9v-2.8c0-0.5,0.4-0.9,0.9-0.9h2.8
			c0.5,0,0.9-0.4,0.9-0.9v-2.8c0-0.5,0.4-0.9,0.9-0.9h2.8c0.5,0,0.9-0.4,0.9-0.9V36v-3.7c0-0.5-0.4-0.9-0.9-0.9h-3.7h-3.7
			c-0.5,0-0.9,0.4-0.9,0.9v2.8c0,0.5-0.4,0.9-0.9,0.9h-2.8c-0.5,0-0.9,0.4-0.9,0.9v2.8c0,0.5-0.4,0.9-0.9,0.9h-2.8
			c-0.5,0-0.9,0.4-0.9,0.9v3.7v3.7c0,0.5-0.4,0.9-0.9,0.9h-2.8c-0.5,0-0.9,0.4-0.9,0.9v2.8c0,0.5,0.4,0.9,0.9,0.9h3.7h3.7
			C84.6,54.7,85,54.2,85,53.7z"/>
		<path class="st2" d="M29.9,40.7h2.8c0.5,0,0.9,0.4,0.9,0.9v2.8c0,0.5,0.4,0.9,0.9,0.9h2.8c0.5,0,0.9,0.4,0.9,0.9v2.8
			c0,0.5,0.4,0.9,0.9,0.9h2.8c0.5,0,0.9,0.4,0.9,0.9v2.8c0,0.5,0.4,0.9,0.9,0.9h3.7h3.7c0.5,0,0.9-0.4,0.9-0.9v-2.8
			c0-0.5-0.4-0.9-0.9-0.9h-2.8c-0.5,0-0.9-0.4-0.9-0.9v-3.7v-3.7c0-0.5-0.4-0.9-0.9-0.9h-2.8c-0.5,0-0.9-0.4-0.9-0.9v-2.8
			c0-0.5-0.4-0.9-0.9-0.9h-2.8c-0.5,0-0.9-0.4-0.9-0.9v-2.8c0-0.5-0.4-0.9-0.9-0.9h-3.7h-3.7c-0.5,0-0.9,0.4-0.9,0.9V36v3.7
			C29,40.2,29.4,40.7,29.9,40.7z"/>
		<path class="st2" d="M28.1,26.7h-2.8c-0.5,0-0.9,0.4-0.9,0.9v2.8c0,0.5,0.4,0.9,0.9,0.9h2.8c0.5,0,0.9-0.4,0.9-0.9v-2.8
			C29,27.1,28.6,26.7,28.1,26.7z"/>
		<path class="st2" d="M108.3,58.4v-2.8c0-0.5-0.4-0.9-0.9-0.9h-3.7H99h-3.7c-0.5,0-0.9,0.4-0.9,0.9v2.8c0,0.5-0.4,0.9-0.9,0.9h-3.7
			h-3.7c-0.5,0-0.9,0.4-0.9,0.9v2.8c0,0.5,0.4,0.9,0.9,0.9h3.7h3.7c0.5,0,0.9,0.4,0.9,0.9v2.8c0,0.5,0.4,0.9,0.9,0.9H99h4.7h3.7
			c0.5,0,0.9-0.4,0.9-0.9v-2.8c0-0.5,0.4-0.9,0.9-0.9h2.8c0.5,0,0.9-0.4,0.9-0.9v-2.8c0-0.5-0.4-0.9-0.9-0.9h-2.8
			C108.8,59.3,108.3,58.9,108.3,58.4z"/>
		<path class="st2" d="M33.7,78.9v2.8c0,0.5,0.4,0.9,0.9,0.9h3.7h3.7c0.5,0,0.9-0.4,0.9-0.9v-2.8c0-0.5-0.4-0.9-0.9-0.9h-3.7h-3.7
			C34.1,78,33.7,78.4,33.7,78.9z"/>
		<path class="st2" d="M85,78.9v2.8c0,0.5,0.4,0.9,0.9,0.9h3.7h3.7c0.5,0,0.9-0.4,0.9-0.9v-2.8c0-0.5-0.4-0.9-0.9-0.9h-3.7h-3.7
			C85.4,78,85,78.4,85,78.9z"/>
		<path class="st2" d="M39.3,96.7h2.8c0.5,0,0.9-0.4,0.9-0.9v-2.8c0-0.5-0.4-0.9-0.9-0.9h-2.8c-0.5,0-0.9,0.4-0.9,0.9v2.8
			C38.3,96.2,38.8,96.7,39.3,96.7z"/>
		<path class="st2" d="M85.9,96.7h2.8c0.5,0,0.9-0.4,0.9-0.9v-2.8c0-0.5-0.4-0.9-0.9-0.9h-2.8c-0.5,0-0.9,0.4-0.9,0.9v2.8
			C85,96.2,85.4,96.7,85.9,96.7z"/>
		<path class="st2" d="M33.7,64.9c0-0.5,0.4-0.9,0.9-0.9h3.7h3.7c0.5,0,0.9-0.4,0.9-0.9v-2.8c0-0.5-0.4-0.9-0.9-0.9h-3.7h-3.7
			c-0.5,0-0.9-0.4-0.9-0.9v-2.8c0-0.5-0.4-0.9-0.9-0.9H29h-4.7h-3.7c-0.5,0-0.9,0.4-0.9,0.9v2.8c0,0.5-0.4,0.9-0.9,0.9h-2.8
			c-0.5,0-0.9,0.4-0.9,0.9v2.8c0,0.5,0.4,0.9,0.9,0.9h2.8c0.5,0,0.9,0.4,0.9,0.9v2.8c0,0.5,0.4,0.9,0.9,0.9h3.7H29h3.7
			c0.5,0,0.9-0.4,0.9-0.9V64.9z"/>
	</g>
</g>
</svg>
