<?xml version="1.0" encoding="utf-8"?>
<!-- Generator: Adobe Illustrator 21.1.0, SVG Export Plug-In . SVG Version: 6.00 Build 0)  -->
<svg version="1.1" id="Layer_1" xmlns="http://www.w3.org/2000/svg" xmlns:xlink="http://www.w3.org/1999/xlink" x="0px" y="0px"
	 viewBox="0 0 382 128" style="enable-background:new 0 0 382 128;" xml:space="preserve">
<style type="text/css">
	.st0{fill:#ADE25D;}
	.st1{fill:#25273E;}
	.st2{fill:#F1D302;}
	.st3{fill:#EF476F;}
</style>
<g>
	<path class="st0" d="M152.8,118.6v-2.8v-2.1c0-0.4-0.3-0.7-0.7-0.7h-1.4c-0.4,0-0.7,0.3-0.7,0.7v2.1v2.8v2.8v2.1
		c0,0.4,0.3,0.7,0.7,0.7h1.4c0.4,0,0.7-0.3,0.7-0.7v-2.1V118.6z"/>
	<path class="st0" d="M158.4,115.8v2.8v2.8v2.1c0,0.4,0.3,0.7,0.7,0.7h1.4c0.4,0,0.7-0.3,0.7-0.7v-2.1v-2.8v-2.8v-2.1
		c0-0.4-0.3-0.7-0.7-0.7h-1.4c-0.4,0-0.7,0.3-0.7,0.7V115.8z"/>
	<path class="st0" d="M166.9,118.6v-2.1c0-0.4-0.3-0.7-0.7-0.7h-1.4c-0.4,0-0.7,0.3-0.7,0.7v2.1v2.8v2.1c0,0.4,0.3,0.7,0.7,0.7h1.4
		c0.4,0,0.7-0.3,0.7-0.7v-2.1V118.6z"/>
	<path class="st0" d="M166.9,124.9v1.4c0,0.4,0.3,0.7,0.7,0.7h2.1h2.1c0.4,0,0.7-0.3,0.7-0.7v-1.4c0-0.4-0.3-0.7-0.7-0.7h-2.1h-2.1
		C167.2,124.3,166.9,124.6,166.9,124.9z"/>
	<path class="st0" d="M152.8,124.9v1.4c0,0.4,0.3,0.7,0.7,0.7h2.1h2.1c0.4,0,0.7-0.3,0.7-0.7v-1.4c0-0.4-0.3-0.7-0.7-0.7h-2.1h-2.1
		C153.1,124.3,152.8,124.6,152.8,124.9z"/>
	<path class="st0" d="M172.5,118.6v2.8v2.1c0,0.4,0.3,0.7,0.7,0.7h1.4c0.4,0,0.7-0.3,0.7-0.7v-2.1v-2.8v-2.1c0-0.4-0.3-0.7-0.7-0.7
		h-1.4c-0.4,0-0.7,0.3-0.7,0.7V118.6z"/>
	<path class="st0" d="M172.5,115.1v-1.4c0-0.4-0.3-0.7-0.7-0.7h-2.1h-2.1c-0.4,0-0.7,0.3-0.7,0.7v1.4c0,0.4,0.3,0.7,0.7,0.7h2.1h2.1
		C172.2,115.8,172.5,115.5,172.5,115.1z"/>
	<path class="st0" d="M181,118.6v-2.1c0-0.4-0.3-0.7-0.7-0.7h-1.4c-0.4,0-0.7,0.3-0.7,0.7v2.1v2.8v2.1c0,0.4,0.3,0.7,0.7,0.7h1.4
		c0.4,0,0.7-0.3,0.7-0.7v-2.1V118.6z"/>
	<path class="st0" d="M181,124.9v1.4c0,0.4,0.3,0.7,0.7,0.7h2.1h2.1c0.4,0,0.7-0.3,0.7-0.7v-1.4c0-0.4-0.3-0.7-0.7-0.7h-2.1h-2.1
		C181.3,124.3,181,124.6,181,124.9z"/>
	<path class="st0" d="M186.6,118.6v2.8v2.1c0,0.4,0.3,0.7,0.7,0.7h1.4c0.4,0,0.7-0.3,0.7-0.7v-2.1v-2.8v-2.1c0-0.4-0.3-0.7-0.7-0.7
		h-1.4c-0.4,0-0.7,0.3-0.7,0.7V118.6z"/>
	<path class="st0" d="M186.6,115.1v-1.4c0-0.4-0.3-0.7-0.7-0.7h-2.1h-2.1c-0.4,0-0.7,0.3-0.7,0.7v1.4c0,0.4,0.3,0.7,0.7,0.7h2.1h2.1
		C186.3,115.8,186.6,115.5,186.6,115.1z"/>
	<path class="st0" d="M195.7,124.3c-0.4,0-0.7-0.3-0.7-0.7v-2.1v-2.8v-2.1c0-0.4,0.3-0.7,0.7-0.7h2.1h2.1c0.4,0,0.7-0.3,0.7-0.7
		v-1.4c0-0.4-0.3-0.7-0.7-0.7h-2.1H195h-2.1c-0.4,0-0.7,0.3-0.7,0.7v2.1v2.8v2.8v2.8v2.1c0,0.4,0.3,0.7,0.7,0.7h2.1h2.8h2.1
		c0.4,0,0.7-0.3,0.7-0.7v-1.4c0-0.4-0.3-0.7-0.7-0.7h-2.1H195.7z"/>
	<path class="st0" d="M200.6,118.6v2.8v2.1c0,0.4,0.3,0.7,0.7,0.7h1.4c0.4,0,0.7-0.3,0.7-0.7v-2.1v-2.8v-2.1c0-0.4-0.3-0.7-0.7-0.7
		h-1.4c-0.4,0-0.7,0.3-0.7,0.7V118.6z"/>
	<path class="st0" d="M209.1,118.6v-2.1c0-0.4-0.3-0.7-0.7-0.7H207c-0.4,0-0.7,0.3-0.7,0.7v2.1v2.8v2.1c0,0.4,0.3,0.7,0.7,0.7h1.4
		c0.4,0,0.7-0.3,0.7-0.7v-2.1V118.6z"/>
	<path class="st0" d="M209.1,124.9v1.4c0,0.4,0.3,0.7,0.7,0.7h2.1h2.1c0.4,0,0.7-0.3,0.7-0.7v-1.4c0-0.4-0.3-0.7-0.7-0.7h-2.1h-2.1
		C209.4,124.3,209.1,124.6,209.1,124.9z"/>
	<path class="st0" d="M214.7,118.6v2.8v2.1c0,0.4,0.3,0.7,0.7,0.7h1.4c0.4,0,0.7-0.3,0.7-0.7v-2.1v-2.8v-2.1c0-0.4-0.3-0.7-0.7-0.7
		h-1.4c-0.4,0-0.7,0.3-0.7,0.7V118.6z"/>
	<path class="st0" d="M214.7,115.1v-1.4c0-0.4-0.3-0.7-0.7-0.7h-2.1h-2.1c-0.4,0-0.7,0.3-0.7,0.7v1.4c0,0.4,0.3,0.7,0.7,0.7h2.1h2.1
		C214.4,115.8,214.7,115.5,214.7,115.1z"/>
	<path class="st0" d="M223.2,118.6v-2.1c0-0.4-0.3-0.7-0.7-0.7H221c-0.4,0-0.7,0.3-0.7,0.7v2.1v2.8v2.1c0,0.4,0.3,0.7,0.7,0.7h1.4
		c0.4,0,0.7-0.3,0.7-0.7v-2.1V118.6z"/>
	<path class="st0" d="M223.2,124.9v1.4c0,0.4,0.3,0.7,0.7,0.7h2.1h2.1c0.4,0,0.7-0.3,0.7-0.7v-1.4c0-0.4-0.3-0.7-0.7-0.7H226h-2.1
		C223.5,124.3,223.2,124.6,223.2,124.9z"/>
	<path class="st0" d="M229.5,115.8c-0.4,0-0.7,0.3-0.7,0.7v2.1v2.8v2.1c0,0.4,0.3,0.7,0.7,0.7h1.4c0.4,0,0.7-0.3,0.7-0.7v-2.1v-2.8
		v-2.1c0-0.4-0.3-0.7-0.7-0.7H229.5z"/>
	<path class="st0" d="M228.8,115.1v-1.4c0-0.4-0.3-0.7-0.7-0.7H226h-2.1c-0.4,0-0.7,0.3-0.7,0.7v1.4c0,0.4,0.3,0.7,0.7,0.7h2.1h2.1
		C228.5,115.8,228.8,115.5,228.8,115.1z"/>
</g>
<g id="Layer_2">
	<path class="st1" d="M233.5,94h-84.9c-2.5,0-4.6-2.1-4.6-4.6V4.6c0-2.5,2.1-4.6,4.6-4.6h85c2.5,0,4.6,2.1,4.6,4.6v85
		C238,91.9,236,94,233.5,94z"/>
</g>
<g id="Layer_1_1_">
	<g>
		<path class="st2" d="M204.5,49.4h-1.8c-0.4,0-0.7-0.3-0.7-0.7v-2.5v-2.5c0-0.4-0.3-0.7-0.7-0.7h-2.5h-2.5c-0.4,0-0.7,0.3-0.7,0.7
			v1.8c0,0.4-0.3,0.7-0.7,0.7h-1.8c-0.4,0-0.7-0.3-0.7-0.7v-1.8c0-0.4-0.3-0.7-0.7-0.7h-1.8c-0.4,0-0.7,0.3-0.7,0.7v1.8
			c0,0.4-0.3,0.7-0.7,0.7h-1.8c-0.4,0-0.7-0.3-0.7-0.7v-1.8c0-0.4-0.3-0.7-0.7-0.7h-2.5h-2.5c-0.4,0-0.7,0.3-0.7,0.7v2.5v2.5
			c0,0.4-0.3,0.7-0.7,0.7h-1.8c-0.4,0-0.7,0.3-0.7,0.7v1.8c0,0.4,0.3,0.7,0.7,0.7h1.8c0.4,0,0.7,0.3,0.7,0.7v2.5v3.2v3.2v3.2v2.5
			c0,0.4,0.3,0.7,0.7,0.7h1.8c0.4,0,0.7,0.3,0.7,0.7v2.5v3.2v2.4c0,0.4,0.3,0.7,0.7,0.7h2.5h3.2h3.2h3.2h2.5c0.4,0,0.7-0.3,0.7-0.7
			v-2.5v-3.2V69c0-0.4,0.3-0.7,0.7-0.7h1.8c0.4,0,0.7-0.3,0.7-0.7v-2.5V62v-3.2v-3.2v-2.5c0-0.4,0.3-0.7,0.7-0.7h1.8
			c0.4,0,0.7-0.3,0.7-0.7V50C205.2,49.7,204.9,49.4,204.5,49.4z M183.2,62v-2.5c0-0.4,0.3-0.7,0.7-0.7h1.8c0.4,0,0.7,0.3,0.7,0.7
			v1.8c0,0.4,0.3,0.7,0.7,0.7h1.8c0.4,0,0.7,0.3,0.7,0.7v1.8c0,0.4-0.3,0.7-0.7,0.7h-2.5h-2.5c-0.4,0-0.7-0.3-0.7-0.7
			C183.2,64.5,183.2,62,183.2,62z M189.5,74v-1.8c0-0.4,0.3-0.7,0.7-0.7h1.8c0.4,0,0.7,0.3,0.7,0.7V74c0,0.4-0.3,0.7-0.7,0.7h-1.8
			C189.8,74.6,189.5,74.3,189.5,74z M198.9,62v2.5c0,0.4-0.3,0.7-0.7,0.7h-2.5h-2.5c-0.4,0-0.7-0.3-0.7-0.7v-1.8
			c0-0.4,0.3-0.7,0.7-0.7h1.8c0.4,0,0.7-0.3,0.7-0.7v-1.8c0-0.4,0.3-0.7,0.7-0.7h1.8c0.4,0,0.7,0.3,0.7,0.7
			C198.9,59.5,198.9,62,198.9,62z"/>
		<path class="st3" d="M189.5,36.8v2.5c0,0.4,0.3,0.7,0.7,0.7h1.8c0.4,0,0.7-0.3,0.7-0.7v-2.5v-2.5c0-0.4,0.3-0.7,0.7-0.7h1.8
			c0.4,0,0.7-0.3,0.7-0.7v-2.5v-3.2v-3.1v-2.5c0-0.4-0.3-0.7-0.7-0.7h-1.9c-0.4,0-0.7-0.3-0.7-0.7v-2.5v-2.5c0-0.4-0.3-0.7-0.7-0.7
			h-1.8c-0.4,0-0.7,0.3-0.7,0.7v2.5v2.5c0,0.4-0.3,0.7-0.7,0.7h-1.8c-0.4,0-0.7,0.3-0.7,0.7v2.5v3.2v3.2V33c0,0.4,0.3,0.7,0.7,0.7
			h1.9c0.4,0,0.7,0.3,0.7,0.7V36.8z"/>
		<path class="st3" d="M217.2,21.1h-1.9c-0.4,0-0.7,0.3-0.7,0.7v1.8c0,0.4,0.3,0.7,0.7,0.7h1.8c0.4,0,0.7-0.3,0.7-0.7v-1.8
			C217.7,21.4,217.5,21.1,217.2,21.1z"/>
		<path class="st3" d="M205.2,39.4v-1.9c0-0.4,0.3-0.7,0.7-0.7h1.8c0.4,0,0.7-0.3,0.7-0.7v-1.8c0-0.4,0.3-0.7,0.7-0.7h1.8
			c0.4,0,0.7-0.3,0.7-0.7v-1.8c0-0.4,0.3-0.7,0.7-0.7h1.8c0.4,0,0.7-0.3,0.7-0.7v-2.5v-2.5c0-0.4-0.3-0.7-0.7-0.7h-2.5H209
			c-0.4,0-0.7,0.3-0.7,0.7v1.8c0,0.4-0.3,0.7-0.7,0.7h-1.8c-0.4,0-0.7,0.3-0.7,0.7v1.8c0,0.4-0.3,0.7-0.7,0.7h-1.8
			c-0.4,0-0.7,0.3-0.7,0.7v2.5v2.5c0,0.4-0.3,0.7-0.7,0.7h-1.8c-0.4,0-0.7,0.3-0.7,0.7v1.8c0,0.4,0.3,0.7,0.7,0.7h2.5h2.5
			C204.9,40,205.2,39.7,205.2,39.4z"/>
		<path class="st3" d="M168,30.5h1.8c0.4,0,0.7,0.3,0.7,0.7V33c0,0.4,0.3,0.7,0.7,0.7h1.8c0.4,0,0.7,0.3,0.7,0.7v1.8
			c0,0.4,0.3,0.7,0.7,0.7h1.8c0.4,0,0.7,0.3,0.7,0.7v1.8c0,0.4,0.3,0.7,0.7,0.7h2.5h2.5c0.4,0,0.7-0.3,0.7-0.7v-1.9
			c0-0.4-0.3-0.7-0.7-0.7h-1.8c-0.4,0-0.7-0.3-0.7-0.7v-2.5v-2.5c0-0.4-0.3-0.7-0.7-0.7h-1.8c-0.4,0-0.7-0.3-0.7-0.7V28
			c0-0.4-0.3-0.7-0.7-0.7h-1.8c-0.4,0-0.7-0.3-0.7-0.7v-1.8c0-0.4-0.3-0.7-0.7-0.7h-2.5H168c-0.4,0-0.7,0.3-0.7,0.7v2.5v2.5
			C167.4,30.3,167.7,30.5,168,30.5z"/>
		<path class="st3" d="M166.8,21.1h-1.8c-0.4,0-0.7,0.3-0.7,0.7v1.8c0,0.4,0.3,0.7,0.7,0.7h1.8c0.4,0,0.7-0.3,0.7-0.7v-1.8
			C167.4,21.4,167.1,21.1,166.8,21.1z"/>
		<path class="st3" d="M220.9,42.4v-1.8c0-0.4-0.3-0.7-0.7-0.7h-2.5h-3.2h-2.5c-0.4,0-0.7,0.3-0.7,0.7v1.8c0,0.4-0.3,0.7-0.7,0.7
			h-2.5h-2.5c-0.4,0-0.7,0.3-0.7,0.7v1.8c0,0.4,0.3,0.7,0.7,0.7h2.5h2.6c0.4,0,0.7,0.3,0.7,0.7v1.8c0,0.4,0.3,0.7,0.7,0.7h2.5h3.2
			h2.5c0.4,0,0.7-0.3,0.7-0.7v-1.8c0-0.4,0.3-0.7,0.7-0.7h1.8c0.4,0,0.7-0.3,0.7-0.7v-1.8c0-0.4-0.3-0.7-0.7-0.7h-1.8
			C221.2,43.1,220.9,42.8,220.9,42.4z"/>
		<path class="st3" d="M170.5,56.3v1.8c0,0.4,0.3,0.7,0.7,0.7h2.5h2.5c0.4,0,0.7-0.3,0.7-0.7v-1.8c0-0.4-0.3-0.7-0.7-0.7h-2.5h-2.5
			C170.8,55.7,170.5,56,170.5,56.3z"/>
		<path class="st3" d="M205.2,56.3v1.8c0,0.4,0.3,0.7,0.7,0.7h2.5h2.5c0.4,0,0.7-0.3,0.7-0.7v-1.8c0-0.4-0.3-0.7-0.7-0.7h-2.5h-2.5
			C205.5,55.7,205.2,56,205.2,56.3z"/>
		<path class="st3" d="M174.3,68.3h1.8c0.4,0,0.7-0.3,0.7-0.7v-1.8c0-0.4-0.3-0.7-0.7-0.7h-1.8c-0.4,0-0.7,0.3-0.7,0.7v1.8
			C173.7,68,174,68.3,174.3,68.3z"/>
		<path class="st3" d="M205.8,68.3h1.8c0.4,0,0.7-0.3,0.7-0.7v-1.8c0-0.4-0.3-0.7-0.7-0.7h-1.8c-0.4,0-0.7,0.3-0.7,0.7v1.8
			C205.2,68,205.5,68.3,205.8,68.3z"/>
		<path class="st3" d="M170.5,46.9c0-0.4,0.3-0.7,0.7-0.7h2.5h2.5c0.4,0,0.7-0.3,0.7-0.7v-1.8c0-0.4-0.3-0.7-0.7-0.7h-2.5h-2.5
			c-0.4,0-0.7-0.3-0.7-0.7v-1.8c0-0.4-0.3-0.7-0.7-0.7h-2.5h-3.2h-2.5c-0.4,0-0.7,0.3-0.7,0.7v1.8c0,0.4-0.3,0.7-0.7,0.7h-1.8
			c-0.4,0-0.7,0.3-0.7,0.7v1.8c0,0.4,0.3,0.7,0.7,0.7h1.8c0.4,0,0.7,0.3,0.7,0.7v1.8c0,0.4,0.3,0.7,0.7,0.7h2.5h3.2h2.5
			c0.4,0,0.7-0.3,0.7-0.7V46.9z"/>
	</g>
</g>
</svg>
