<?xml version="1.0" encoding="utf-8"?>
<!-- Generator: Adobe Illustrator 21.1.0, SVG Export Plug-In . SVG Version: 6.00 Build 0)  -->
<svg version="1.1" id="Layer_1" xmlns="http://www.w3.org/2000/svg" xmlns:xlink="http://www.w3.org/1999/xlink" x="0px" y="0px"
	 viewBox="0 0 82 14" style="enable-background:new 0 0 82 14;" xml:space="preserve">
<style type="text/css">
	.st0{fill:#ADE25D;}
</style>
<g>
	<path class="st0" d="M3.2,5.6V2.8V0.7C3.2,0.3,2.9,0,2.5,0H1.1C0.7,0,0.4,0.3,0.4,0.7v2.1v2.8v2.8v2.1c0,0.4,0.3,0.7,0.7,0.7h1.4
		c0.4,0,0.7-0.3,0.7-0.7V8.4V5.6z"/>
	<path class="st0" d="M8.8,2.8v2.8v2.8v2.1c0,0.4,0.3,0.7,0.7,0.7H11c0.4,0,0.7-0.3,0.7-0.7V8.4V5.6V2.8V0.7C11.7,0.3,11.3,0,11,0
		H9.5C9.1,0,8.8,0.3,8.8,0.7V2.8z"/>
	<path class="st0" d="M17.3,5.6V3.5c0-0.4-0.3-0.7-0.7-0.7h-1.4c-0.4,0-0.7,0.3-0.7,0.7v2.1v2.8v2.1c0,0.4,0.3,0.7,0.7,0.7h1.4
		c0.4,0,0.7-0.3,0.7-0.7V8.4V5.6z"/>
	<path class="st0" d="M17.3,11.9v1.4c0,0.4,0.3,0.7,0.7,0.7h2.1h2.1c0.4,0,0.7-0.3,0.7-0.7v-1.4c0-0.4-0.3-0.7-0.7-0.7h-2.1H18
		C17.6,11.2,17.3,11.5,17.3,11.9z"/>
	<path class="st0" d="M3.2,11.9v1.4c0,0.4,0.3,0.7,0.7,0.7H6h2.1c0.4,0,0.7-0.3,0.7-0.7v-1.4c0-0.4-0.3-0.7-0.7-0.7H6H3.9
		C3.5,11.2,3.2,11.5,3.2,11.9z"/>
	<path class="st0" d="M22.9,5.6v2.8v2.1c0,0.4,0.3,0.7,0.7,0.7H25c0.4,0,0.7-0.3,0.7-0.7V8.4V5.6V3.5c0-0.4-0.3-0.7-0.7-0.7h-1.4
		c-0.4,0-0.7,0.3-0.7,0.7V5.6z"/>
	<path class="st0" d="M22.9,2.1V0.7c0-0.4-0.3-0.7-0.7-0.7h-2.1H18c-0.4,0-0.7,0.3-0.7,0.7v1.4c0,0.4,0.3,0.7,0.7,0.7h2.1h2.1
		C22.6,2.8,22.9,2.5,22.9,2.1z"/>
	<path class="st0" d="M31.4,5.6V3.5c0-0.4-0.3-0.7-0.7-0.7h-1.4c-0.4,0-0.7,0.3-0.7,0.7v2.1v2.8v2.1c0,0.4,0.3,0.7,0.7,0.7h1.4
		c0.4,0,0.7-0.3,0.7-0.7V8.4V5.6z"/>
	<path class="st0" d="M31.4,11.9v1.4c0,0.4,0.3,0.7,0.7,0.7h2.1h2.1c0.4,0,0.7-0.3,0.7-0.7v-1.4c0-0.4-0.3-0.7-0.7-0.7h-2.1H32
		C31.7,11.2,31.4,11.5,31.4,11.9z"/>
	<path class="st0" d="M37,5.6v2.8v2.1c0,0.4,0.3,0.7,0.7,0.7h1.4c0.4,0,0.7-0.3,0.7-0.7V8.4V5.6V3.5c0-0.4-0.3-0.7-0.7-0.7h-1.4
		c-0.4,0-0.7,0.3-0.7,0.7V5.6z"/>
	<path class="st0" d="M37,2.1V0.7C37,0.3,36.7,0,36.3,0h-2.1H32c-0.4,0-0.7,0.3-0.7,0.7v1.4c0,0.4,0.3,0.7,0.7,0.7h2.1h2.1
		C36.7,2.8,37,2.5,37,2.1z"/>
	<path class="st0" d="M46.1,11.2c-0.4,0-0.7-0.3-0.7-0.7V8.4V5.6V3.5c0-0.4,0.3-0.7,0.7-0.7h2.1h2.1c0.4,0,0.7-0.3,0.7-0.7V0.7
		C51,0.3,50.7,0,50.4,0h-2.1h-2.8h-2.1c-0.4,0-0.7,0.3-0.7,0.7v2.1v2.8v2.8v2.8v2.1c0,0.4,0.3,0.7,0.7,0.7h2.1h2.8h2.1
		c0.4,0,0.7-0.3,0.7-0.7v-1.4c0-0.4-0.3-0.7-0.7-0.7h-2.1H46.1z"/>
	<path class="st0" d="M51,5.6v2.8v2.1c0,0.4,0.3,0.7,0.7,0.7h1.4c0.4,0,0.7-0.3,0.7-0.7V8.4V5.6V3.5c0-0.4-0.3-0.7-0.7-0.7h-1.4
		c-0.4,0-0.7,0.3-0.7,0.7V5.6z"/>
	<path class="st0" d="M59.5,5.6V3.5c0-0.4-0.3-0.7-0.7-0.7h-1.4c-0.4,0-0.7,0.3-0.7,0.7v2.1v2.8v2.1c0,0.4,0.3,0.7,0.7,0.7h1.4
		c0.4,0,0.7-0.3,0.7-0.7V8.4V5.6z"/>
	<path class="st0" d="M59.5,11.9v1.4c0,0.4,0.3,0.7,0.7,0.7h2.1h2.1c0.4,0,0.7-0.3,0.7-0.7v-1.4c0-0.4-0.3-0.7-0.7-0.7h-2.1h-2.1
		C59.8,11.2,59.5,11.5,59.5,11.9z"/>
	<path class="st0" d="M65.1,5.6v2.8v2.1c0,0.4,0.3,0.7,0.7,0.7h1.4c0.4,0,0.7-0.3,0.7-0.7V8.4V5.6V3.5c0-0.4-0.3-0.7-0.7-0.7h-1.4
		c-0.4,0-0.7,0.3-0.7,0.7V5.6z"/>
	<path class="st0" d="M65.1,2.1V0.7c0-0.4-0.3-0.7-0.7-0.7h-2.1h-2.1c-0.4,0-0.7,0.3-0.7,0.7v1.4c0,0.4,0.3,0.7,0.7,0.7h2.1h2.1
		C64.8,2.8,65.1,2.5,65.1,2.1z"/>
	<path class="st0" d="M73.6,5.6V3.5c0-0.4-0.3-0.7-0.7-0.7h-1.4c-0.4,0-0.7,0.3-0.7,0.7v2.1v2.8v2.1c0,0.4,0.3,0.7,0.7,0.7h1.4
		c0.4,0,0.7-0.3,0.7-0.7V8.4V5.6z"/>
	<path class="st0" d="M73.6,11.9v1.4c0,0.4,0.3,0.7,0.7,0.7h2.1h2.1c0.4,0,0.7-0.3,0.7-0.7v-1.4c0-0.4-0.3-0.7-0.7-0.7h-2.1h-2.1
		C73.9,11.2,73.6,11.5,73.6,11.9z"/>
	<path class="st0" d="M79.9,2.8c-0.4,0-0.7,0.3-0.7,0.7v2.1v2.8v2.1c0,0.4,0.3,0.7,0.7,0.7h1.4c0.4,0,0.7-0.3,0.7-0.7V8.4V5.6V3.5
		c0-0.4-0.3-0.7-0.7-0.7H79.9z"/>
	<path class="st0" d="M79.2,2.1V0.7c0-0.4-0.3-0.7-0.7-0.7h-2.1h-2.1c-0.4,0-0.7,0.3-0.7,0.7v1.4c0,0.4,0.3,0.7,0.7,0.7h2.1h2.1
		C78.9,2.8,79.2,2.5,79.2,2.1z"/>
</g>
</svg>
